<svg width="1191" height="494" viewBox="0 0 1191 494" fill="none" xmlns="http://www.w3.org/2000/svg">
<rect width="1191" height="494" fill="white"/>
<rect x="323" y="185" width="197" height="128" fill="#D9D9D9"/>
<path d="M342.866 257L338.491 241H340.46L343.804 254.031H343.96L347.366 241H349.554L352.96 254.031H353.116L356.46 241H358.429L354.054 257H352.054L348.522 244.25H348.397L344.866 257H342.866ZM373.591 249C373.591 250.687 373.286 252.146 372.677 253.375C372.067 254.604 371.231 255.552 370.169 256.219C369.106 256.885 367.893 257.219 366.528 257.219C365.164 257.219 363.95 256.885 362.888 256.219C361.825 255.552 360.989 254.604 360.38 253.375C359.771 252.146 359.466 250.687 359.466 249C359.466 247.312 359.771 245.854 360.38 244.625C360.989 243.396 361.825 242.448 362.888 241.781C363.95 241.115 365.164 240.781 366.528 240.781C367.893 240.781 369.106 241.115 370.169 241.781C371.231 242.448 372.067 243.396 372.677 244.625C373.286 245.854 373.591 247.312 373.591 249ZM371.716 249C371.716 247.615 371.484 246.445 371.021 245.492C370.562 244.539 369.94 243.818 369.153 243.328C368.372 242.839 367.497 242.594 366.528 242.594C365.56 242.594 364.682 242.839 363.896 243.328C363.114 243.818 362.492 244.539 362.028 245.492C361.57 246.445 361.341 247.615 361.341 249C361.341 250.385 361.57 251.555 362.028 252.508C362.492 253.461 363.114 254.182 363.896 254.672C364.682 255.161 365.56 255.406 366.528 255.406C367.497 255.406 368.372 255.161 369.153 254.672C369.94 254.182 370.562 253.461 371.021 252.508C371.484 251.555 371.716 250.385 371.716 249ZM376.849 257V241H382.255C383.505 241 384.531 241.214 385.333 241.641C386.135 242.062 386.729 242.643 387.114 243.383C387.5 244.122 387.692 244.964 387.692 245.906C387.692 246.849 387.5 247.685 387.114 248.414C386.729 249.143 386.138 249.716 385.341 250.133C384.544 250.544 383.526 250.75 382.286 250.75H377.911V249H382.224C383.078 249 383.765 248.875 384.286 248.625C384.812 248.375 385.192 248.021 385.427 247.562C385.666 247.099 385.786 246.547 385.786 245.906C385.786 245.266 385.666 244.706 385.427 244.227C385.187 243.747 384.804 243.378 384.278 243.117C383.752 242.852 383.057 242.719 382.192 242.719H378.786V257H376.849ZM384.38 249.812L388.317 257H386.067L382.192 249.812H384.38ZM390.921 257V241H392.858V248.937H393.046L400.233 241H402.765L396.046 248.219L402.765 257H400.421L394.858 249.562L392.858 251.812V257H390.921ZM414.022 245C413.929 244.208 413.549 243.594 412.882 243.156C412.215 242.719 411.397 242.5 410.429 242.5C409.72 242.5 409.101 242.615 408.569 242.844C408.043 243.073 407.632 243.388 407.335 243.789C407.043 244.19 406.897 244.646 406.897 245.156C406.897 245.583 406.999 245.951 407.202 246.258C407.41 246.56 407.676 246.812 407.999 247.016C408.322 247.214 408.66 247.378 409.015 247.508C409.369 247.633 409.694 247.734 409.991 247.812L411.616 248.25C412.033 248.359 412.496 248.51 413.007 248.703C413.522 248.896 414.015 249.159 414.483 249.492C414.957 249.82 415.348 250.242 415.655 250.758C415.963 251.273 416.116 251.906 416.116 252.656C416.116 253.521 415.89 254.302 415.437 255C414.989 255.698 414.332 256.253 413.468 256.664C412.608 257.076 411.564 257.281 410.335 257.281C409.189 257.281 408.197 257.096 407.358 256.727C406.525 256.357 405.869 255.841 405.39 255.18C404.916 254.518 404.647 253.75 404.585 252.875H406.585C406.637 253.479 406.84 253.979 407.194 254.375C407.554 254.766 408.007 255.057 408.554 255.25C409.106 255.437 409.7 255.531 410.335 255.531C411.075 255.531 411.739 255.411 412.327 255.172C412.916 254.927 413.382 254.589 413.726 254.156C414.069 253.719 414.241 253.208 414.241 252.625C414.241 252.094 414.093 251.661 413.796 251.328C413.499 250.995 413.108 250.724 412.624 250.516C412.14 250.307 411.616 250.125 411.054 249.969L409.085 249.406C407.835 249.047 406.845 248.534 406.116 247.867C405.387 247.201 405.022 246.328 405.022 245.25C405.022 244.354 405.265 243.573 405.749 242.906C406.239 242.234 406.895 241.714 407.718 241.344C408.546 240.969 409.47 240.781 410.491 240.781C411.522 240.781 412.439 240.966 413.241 241.336C414.043 241.701 414.679 242.201 415.147 242.836C415.621 243.471 415.871 244.193 415.897 245H414.022ZM419.302 257V241H424.708C425.963 241 426.989 241.227 427.786 241.68C428.588 242.128 429.182 242.734 429.567 243.5C429.953 244.266 430.146 245.12 430.146 246.062C430.146 247.005 429.953 247.862 429.567 248.633C429.187 249.404 428.599 250.018 427.802 250.477C427.005 250.93 425.984 251.156 424.739 251.156H420.864V249.438H424.677C425.536 249.438 426.226 249.289 426.747 248.992C427.268 248.695 427.646 248.294 427.88 247.789C428.119 247.279 428.239 246.703 428.239 246.062C428.239 245.422 428.119 244.849 427.88 244.344C427.646 243.839 427.265 243.443 426.739 243.156C426.213 242.865 425.515 242.719 424.646 242.719H421.239V257H419.302ZM433.267 257V241H435.204V255.281H442.642V257H433.267ZM447.579 241V257H445.642V241H447.579ZM450.589 242.719V241H462.589V242.719H457.558V257H455.62V242.719H450.589ZM464.704 242.719V241H476.704V242.719H471.673V257H469.735V242.719H464.704ZM479.694 257V241H489.351V242.719H481.632V248.125H488.851V249.844H481.632V255.281H489.476V257H479.694ZM492.843 257V241H498.249C499.499 241 500.525 241.214 501.327 241.641C502.129 242.062 502.723 242.643 503.108 243.383C503.494 244.122 503.687 244.964 503.687 245.906C503.687 246.849 503.494 247.685 503.108 248.414C502.723 249.143 502.132 249.716 501.335 250.133C500.538 250.544 499.52 250.75 498.28 250.75H493.905V249H498.218C499.072 249 499.759 248.875 500.28 248.625C500.806 248.375 501.187 248.021 501.421 247.562C501.66 247.099 501.78 246.547 501.78 245.906C501.78 245.266 501.66 244.706 501.421 244.227C501.181 243.747 500.799 243.378 500.272 243.117C499.746 242.852 499.051 242.719 498.187 242.719H494.78V257H492.843ZM500.374 249.812L504.312 257H502.062L498.187 249.812H500.374Z" fill="black"/>
<rect x="986" y="23" width="183" height="128" fill="#D9D9D9"/>
<path d="M1004.66 95V79H1010.07C1011.32 79 1012.35 79.2266 1013.15 79.6797C1013.95 80.1276 1014.54 80.7344 1014.93 81.5C1015.31 82.2656 1015.5 83.1198 1015.5 84.0625C1015.5 85.0052 1015.31 85.862 1014.93 86.6328C1014.55 87.4036 1013.96 88.0182 1013.16 88.4766C1012.36 88.9297 1011.34 89.1562 1010.1 89.1562H1006.22V87.4375H1010.04C1010.9 87.4375 1011.59 87.2891 1012.11 86.9922C1012.63 86.6953 1013 86.2943 1013.24 85.7891C1013.48 85.2786 1013.6 84.7031 1013.6 84.0625C1013.6 83.4219 1013.48 82.849 1013.24 82.3437C1013 81.8385 1012.62 81.4427 1012.1 81.1562C1011.57 80.8646 1010.87 80.7187 1010 80.7187H1006.6V95H1004.66ZM1018.63 95V79H1024.03C1025.28 79 1026.31 79.2135 1027.11 79.6406C1027.91 80.0625 1028.51 80.6432 1028.89 81.3828C1029.28 82.1224 1029.47 82.9635 1029.47 83.9062C1029.47 84.849 1029.28 85.6849 1028.89 86.4141C1028.51 87.1432 1027.92 87.7161 1027.12 88.1328C1026.32 88.5443 1025.3 88.75 1024.06 88.75H1019.69V87H1024C1024.86 87 1025.54 86.875 1026.06 86.625C1026.59 86.375 1026.97 86.0208 1027.2 85.5625C1027.44 85.099 1027.56 84.5469 1027.56 83.9062C1027.56 83.2656 1027.44 82.7057 1027.2 82.2266C1026.96 81.7474 1026.58 81.3776 1026.06 81.1172C1025.53 80.8516 1024.83 80.7187 1023.97 80.7187H1020.56V95H1018.63ZM1026.16 87.8125L1030.09 95H1027.84L1023.97 87.8125H1026.16ZM1034.64 79V95H1032.7V79H1034.64ZM1038.52 79H1040.83L1046.27 92.2812H1046.46L1051.9 79H1054.21V95H1052.4V82.8438H1052.24L1047.24 95H1045.49L1040.49 82.8438H1040.33V95H1038.52V79ZM1058.09 95V79H1067.75V80.7187H1060.03V86.125H1067.25V87.8437H1060.03V93.2812H1067.87V95H1058.09ZM1079.99 83C1079.9 82.2083 1079.52 81.5938 1078.85 81.1562C1078.18 80.7187 1077.37 80.5 1076.4 80.5C1075.69 80.5 1075.07 80.6146 1074.54 80.8437C1074.01 81.0729 1073.6 81.388 1073.3 81.7891C1073.01 82.1901 1072.87 82.6458 1072.87 83.1562C1072.87 83.5833 1072.97 83.9505 1073.17 84.2578C1073.38 84.5599 1073.64 84.8125 1073.97 85.0156C1074.29 85.2135 1074.63 85.3776 1074.98 85.5078C1075.34 85.6328 1075.66 85.7344 1075.96 85.8125L1077.58 86.25C1078 86.3594 1078.47 86.5104 1078.98 86.7031C1079.49 86.8958 1079.98 87.1589 1080.45 87.4922C1080.93 87.8203 1081.32 88.2422 1081.62 88.7578C1081.93 89.2734 1082.08 89.9062 1082.08 90.6562C1082.08 91.5208 1081.86 92.3021 1081.41 93C1080.96 93.6979 1080.3 94.2526 1079.44 94.6641C1078.58 95.0755 1077.53 95.2813 1076.3 95.2813C1075.16 95.2813 1074.17 95.0964 1073.33 94.7266C1072.49 94.3568 1071.84 93.8411 1071.36 93.1797C1070.88 92.5182 1070.62 91.75 1070.55 90.875H1072.55C1072.61 91.4792 1072.81 91.9792 1073.16 92.375C1073.52 92.7656 1073.98 93.0573 1074.52 93.25C1075.07 93.4375 1075.67 93.5312 1076.3 93.5312C1077.04 93.5312 1077.71 93.4115 1078.3 93.1719C1078.88 92.9271 1079.35 92.5885 1079.69 92.1562C1080.04 91.7187 1080.21 91.2083 1080.21 90.625C1080.21 90.0937 1080.06 89.6615 1079.76 89.3281C1079.47 88.9948 1079.08 88.724 1078.59 88.5156C1078.11 88.3073 1077.58 88.125 1077.02 87.9687L1075.05 87.4062C1073.8 87.0469 1072.81 86.5339 1072.08 85.8672C1071.36 85.2005 1070.99 84.3281 1070.99 83.25C1070.99 82.3542 1071.23 81.5729 1071.72 80.9062C1072.21 80.2344 1072.86 79.7135 1073.69 79.3437C1074.51 78.9687 1075.44 78.7812 1076.46 78.7812C1077.49 78.7812 1078.41 78.9661 1079.21 79.3359C1080.01 79.7005 1080.65 80.2005 1081.12 80.8359C1081.59 81.4714 1081.84 82.1927 1081.87 83H1079.99ZM1085.27 95V79H1094.93V80.7187H1087.21V86.125H1094.43V87.8437H1087.21V93.2812H1095.05V95H1085.27ZM1098.42 95V79H1103.83C1105.08 79 1106.1 79.2135 1106.9 79.6406C1107.71 80.0625 1108.3 80.6432 1108.68 81.3828C1109.07 82.1224 1109.26 82.9635 1109.26 83.9062C1109.26 84.849 1109.07 85.6849 1108.68 86.4141C1108.3 87.1432 1107.71 87.7161 1106.91 88.1328C1106.11 88.5443 1105.1 88.75 1103.86 88.75H1099.48V87H1103.79C1104.65 87 1105.34 86.875 1105.86 86.625C1106.38 86.375 1106.76 86.0208 1107 85.5625C1107.24 85.099 1107.36 84.5469 1107.36 83.9062C1107.36 83.2656 1107.24 82.7057 1107 82.2266C1106.76 81.7474 1106.37 81.3776 1105.85 81.1172C1105.32 80.8516 1104.63 80.7187 1103.76 80.7187H1100.36V95H1098.42ZM1105.95 87.8125L1109.89 95H1107.64L1103.76 87.8125H1105.95ZM1112.78 79L1117.53 92.4687H1117.72L1122.47 79H1124.5L1118.63 95H1116.63L1110.75 79H1112.78ZM1126.99 95V79H1136.65V80.7187H1128.93V86.125H1136.15V87.8437H1128.93V93.2812H1136.77V95H1126.99ZM1140.14 95V79H1145.55C1146.8 79 1147.82 79.2135 1148.63 79.6406C1149.43 80.0625 1150.02 80.6432 1150.41 81.3828C1150.79 82.1224 1150.99 82.9635 1150.99 83.9062C1150.99 84.849 1150.79 85.6849 1150.41 86.4141C1150.02 87.1432 1149.43 87.7161 1148.63 88.1328C1147.84 88.5443 1146.82 88.75 1145.58 88.75H1141.2V87H1145.52C1146.37 87 1147.06 86.875 1147.58 86.625C1148.11 86.375 1148.49 86.0208 1148.72 85.5625C1148.96 85.099 1149.08 84.5469 1149.08 83.9062C1149.08 83.2656 1148.96 82.7057 1148.72 82.2266C1148.48 81.7474 1148.1 81.3776 1147.57 81.1172C1147.05 80.8516 1146.35 80.7187 1145.49 80.7187H1142.08V95H1140.14ZM1147.67 87.8125L1151.61 95H1149.36L1145.49 87.8125H1147.67Z" fill="black"/>
<rect x="986" y="185" width="183" height="128" fill="#D9D9D9"/>
<path d="M1004.66 257V241H1010.07C1011.32 241 1012.35 241.227 1013.15 241.68C1013.95 242.128 1014.54 242.734 1014.93 243.5C1015.31 244.266 1015.5 245.12 1015.5 246.062C1015.5 247.005 1015.31 247.862 1014.93 248.633C1014.55 249.404 1013.96 250.018 1013.16 250.477C1012.36 250.93 1011.34 251.156 1010.1 251.156H1006.22V249.438H1010.04C1010.9 249.438 1011.59 249.289 1012.11 248.992C1012.63 248.695 1013 248.294 1013.24 247.789C1013.48 247.279 1013.6 246.703 1013.6 246.062C1013.6 245.422 1013.48 244.849 1013.24 244.344C1013 243.839 1012.62 243.443 1012.1 243.156C1011.57 242.865 1010.87 242.719 1010 242.719H1006.6V257H1004.66ZM1018.63 257V241H1024.03C1025.28 241 1026.31 241.214 1027.11 241.641C1027.91 242.062 1028.51 242.643 1028.89 243.383C1029.28 244.122 1029.47 244.964 1029.47 245.906C1029.47 246.849 1029.28 247.685 1028.89 248.414C1028.51 249.143 1027.92 249.716 1027.12 250.133C1026.32 250.544 1025.3 250.75 1024.06 250.75H1019.69V249H1024C1024.86 249 1025.54 248.875 1026.06 248.625C1026.59 248.375 1026.97 248.021 1027.2 247.562C1027.44 247.099 1027.56 246.547 1027.56 245.906C1027.56 245.266 1027.44 244.706 1027.2 244.227C1026.96 243.747 1026.58 243.378 1026.06 243.117C1025.53 242.852 1024.83 242.719 1023.97 242.719H1020.56V257H1018.63ZM1026.16 249.812L1030.09 257H1027.84L1023.97 249.812H1026.16ZM1034.64 241V257H1032.7V241H1034.64ZM1038.52 241H1040.83L1046.27 254.281H1046.46L1051.9 241H1054.21V257H1052.4V244.844H1052.24L1047.24 257H1045.49L1040.49 244.844H1040.33V257H1038.52V241ZM1058.09 257V241H1067.75V242.719H1060.03V248.125H1067.25V249.844H1060.03V255.281H1067.87V257H1058.09ZM1079.99 245C1079.9 244.208 1079.52 243.594 1078.85 243.156C1078.18 242.719 1077.37 242.5 1076.4 242.5C1075.69 242.5 1075.07 242.615 1074.54 242.844C1074.01 243.073 1073.6 243.388 1073.3 243.789C1073.01 244.19 1072.87 244.646 1072.87 245.156C1072.87 245.583 1072.97 245.951 1073.17 246.258C1073.38 246.56 1073.64 246.812 1073.97 247.016C1074.29 247.214 1074.63 247.378 1074.98 247.508C1075.34 247.633 1075.66 247.734 1075.96 247.812L1077.58 248.25C1078 248.359 1078.47 248.51 1078.98 248.703C1079.49 248.896 1079.98 249.159 1080.45 249.492C1080.93 249.82 1081.32 250.242 1081.62 250.758C1081.93 251.273 1082.08 251.906 1082.08 252.656C1082.08 253.521 1081.86 254.302 1081.41 255C1080.96 255.698 1080.3 256.253 1079.44 256.664C1078.58 257.076 1077.53 257.281 1076.3 257.281C1075.16 257.281 1074.17 257.096 1073.33 256.727C1072.49 256.357 1071.84 255.841 1071.36 255.18C1070.88 254.518 1070.62 253.75 1070.55 252.875H1072.55C1072.61 253.479 1072.81 253.979 1073.16 254.375C1073.52 254.766 1073.98 255.057 1074.52 255.25C1075.07 255.437 1075.67 255.531 1076.3 255.531C1077.04 255.531 1077.71 255.411 1078.3 255.172C1078.88 254.927 1079.35 254.589 1079.69 254.156C1080.04 253.719 1080.21 253.208 1080.21 252.625C1080.21 252.094 1080.06 251.661 1079.76 251.328C1079.47 250.995 1079.08 250.724 1078.59 250.516C1078.11 250.307 1077.58 250.125 1077.02 249.969L1075.05 249.406C1073.8 249.047 1072.81 248.534 1072.08 247.867C1071.36 247.201 1070.99 246.328 1070.99 245.25C1070.99 244.354 1071.23 243.573 1071.72 242.906C1072.21 242.234 1072.86 241.714 1073.69 241.344C1074.51 240.969 1075.44 240.781 1076.46 240.781C1077.49 240.781 1078.41 240.966 1079.21 241.336C1080.01 241.701 1080.65 242.201 1081.12 242.836C1081.59 243.471 1081.84 244.193 1081.87 245H1079.99ZM1085.27 257V241H1094.93V242.719H1087.21V248.125H1094.43V249.844H1087.21V255.281H1095.05V257H1085.27ZM1098.42 257V241H1103.83C1105.08 241 1106.1 241.214 1106.9 241.641C1107.71 242.062 1108.3 242.643 1108.68 243.383C1109.07 244.122 1109.26 244.964 1109.26 245.906C1109.26 246.849 1109.07 247.685 1108.68 248.414C1108.3 249.143 1107.71 249.716 1106.91 250.133C1106.11 250.544 1105.1 250.75 1103.86 250.75H1099.48V249H1103.79C1104.65 249 1105.34 248.875 1105.86 248.625C1106.38 248.375 1106.76 248.021 1107 247.562C1107.24 247.099 1107.36 246.547 1107.36 245.906C1107.36 245.266 1107.24 244.706 1107 244.227C1106.76 243.747 1106.37 243.378 1105.85 243.117C1105.32 242.852 1104.63 242.719 1103.76 242.719H1100.36V257H1098.42ZM1105.95 249.812L1109.89 257H1107.64L1103.76 249.812H1105.95ZM1112.78 241L1117.53 254.469H1117.72L1122.47 241H1124.5L1118.63 257H1116.63L1110.75 241H1112.78ZM1126.99 257V241H1136.65V242.719H1128.93V248.125H1136.15V249.844H1128.93V255.281H1136.77V257H1126.99ZM1140.14 257V241H1145.55C1146.8 241 1147.82 241.214 1148.63 241.641C1149.43 242.062 1150.02 242.643 1150.41 243.383C1150.79 244.122 1150.99 244.964 1150.99 245.906C1150.99 246.849 1150.79 247.685 1150.41 248.414C1150.02 249.143 1149.43 249.716 1148.63 250.133C1147.84 250.544 1146.82 250.75 1145.58 250.75H1141.2V249H1145.52C1146.37 249 1147.06 248.875 1147.58 248.625C1148.11 248.375 1148.49 248.021 1148.72 247.562C1148.96 247.099 1149.08 246.547 1149.08 245.906C1149.08 245.266 1148.96 244.706 1148.72 244.227C1148.48 243.747 1148.1 243.378 1147.57 243.117C1147.05 242.852 1146.35 242.719 1145.49 242.719H1142.08V257H1140.14ZM1147.67 249.812L1151.61 257H1149.36L1145.49 249.812H1147.67Z" fill="black"/>
<rect x="986" y="347" width="183" height="128" fill="#D9D9D9"/>
<path d="M1004.66 419V403H1010.07C1011.32 403 1012.35 403.227 1013.15 403.68C1013.95 404.128 1014.54 404.734 1014.93 405.5C1015.31 406.266 1015.5 407.12 1015.5 408.062C1015.5 409.005 1015.31 409.862 1014.93 410.633C1014.55 411.404 1013.96 412.018 1013.16 412.477C1012.36 412.93 1011.34 413.156 1010.1 413.156H1006.22V411.438H1010.04C1010.9 411.438 1011.59 411.289 1012.11 410.992C1012.63 410.695 1013 410.294 1013.24 409.789C1013.48 409.279 1013.6 408.703 1013.6 408.062C1013.6 407.422 1013.48 406.849 1013.24 406.344C1013 405.839 1012.62 405.443 1012.1 405.156C1011.57 404.865 1010.87 404.719 1010 404.719H1006.6V419H1004.66ZM1018.63 419V403H1024.03C1025.28 403 1026.31 403.214 1027.11 403.641C1027.91 404.062 1028.51 404.643 1028.89 405.383C1029.28 406.122 1029.47 406.964 1029.47 407.906C1029.47 408.849 1029.28 409.685 1028.89 410.414C1028.51 411.143 1027.92 411.716 1027.12 412.133C1026.32 412.544 1025.3 412.75 1024.06 412.75H1019.69V411H1024C1024.86 411 1025.54 410.875 1026.06 410.625C1026.59 410.375 1026.97 410.021 1027.2 409.562C1027.44 409.099 1027.56 408.547 1027.56 407.906C1027.56 407.266 1027.44 406.706 1027.2 406.227C1026.96 405.747 1026.58 405.378 1026.06 405.117C1025.53 404.852 1024.83 404.719 1023.97 404.719H1020.56V419H1018.63ZM1026.16 411.812L1030.09 419H1027.84L1023.97 411.812H1026.16ZM1034.64 403V419H1032.7V403H1034.64ZM1038.52 403H1040.83L1046.27 416.281H1046.46L1051.9 403H1054.21V419H1052.4V406.844H1052.24L1047.24 419H1045.49L1040.49 406.844H1040.33V419H1038.52V403ZM1058.09 419V403H1067.75V404.719H1060.03V410.125H1067.25V411.844H1060.03V417.281H1067.87V419H1058.09ZM1079.99 407C1079.9 406.208 1079.52 405.594 1078.85 405.156C1078.18 404.719 1077.37 404.5 1076.4 404.5C1075.69 404.5 1075.07 404.615 1074.54 404.844C1074.01 405.073 1073.6 405.388 1073.3 405.789C1073.01 406.19 1072.87 406.646 1072.87 407.156C1072.87 407.583 1072.97 407.951 1073.17 408.258C1073.38 408.56 1073.64 408.812 1073.97 409.016C1074.29 409.214 1074.63 409.378 1074.98 409.508C1075.34 409.633 1075.66 409.734 1075.96 409.812L1077.58 410.25C1078 410.359 1078.47 410.51 1078.98 410.703C1079.49 410.896 1079.98 411.159 1080.45 411.492C1080.93 411.82 1081.32 412.242 1081.62 412.758C1081.93 413.273 1082.08 413.906 1082.08 414.656C1082.08 415.521 1081.86 416.302 1081.41 417C1080.96 417.698 1080.3 418.253 1079.44 418.664C1078.58 419.076 1077.53 419.281 1076.3 419.281C1075.16 419.281 1074.17 419.096 1073.33 418.727C1072.49 418.357 1071.84 417.841 1071.36 417.18C1070.88 416.518 1070.62 415.75 1070.55 414.875H1072.55C1072.61 415.479 1072.81 415.979 1073.16 416.375C1073.52 416.766 1073.98 417.057 1074.52 417.25C1075.07 417.437 1075.67 417.531 1076.3 417.531C1077.04 417.531 1077.71 417.411 1078.3 417.172C1078.88 416.927 1079.35 416.589 1079.69 416.156C1080.04 415.719 1080.21 415.208 1080.21 414.625C1080.21 414.094 1080.06 413.661 1079.76 413.328C1079.47 412.995 1079.08 412.724 1078.59 412.516C1078.11 412.307 1077.58 412.125 1077.02 411.969L1075.05 411.406C1073.8 411.047 1072.81 410.534 1072.08 409.867C1071.36 409.201 1070.99 408.328 1070.99 407.25C1070.99 406.354 1071.23 405.573 1071.72 404.906C1072.21 404.234 1072.86 403.714 1073.69 403.344C1074.51 402.969 1075.44 402.781 1076.46 402.781C1077.49 402.781 1078.41 402.966 1079.21 403.336C1080.01 403.701 1080.65 404.201 1081.12 404.836C1081.59 405.471 1081.84 406.193 1081.87 407H1079.99ZM1085.27 419V403H1094.93V404.719H1087.21V410.125H1094.43V411.844H1087.21V417.281H1095.05V419H1085.27ZM1098.42 419V403H1103.83C1105.08 403 1106.1 403.214 1106.9 403.641C1107.71 404.062 1108.3 404.643 1108.68 405.383C1109.07 406.122 1109.26 406.964 1109.26 407.906C1109.26 408.849 1109.07 409.685 1108.68 410.414C1108.3 411.143 1107.71 411.716 1106.91 412.133C1106.11 412.544 1105.1 412.75 1103.86 412.75H1099.48V411H1103.79C1104.65 411 1105.34 410.875 1105.86 410.625C1106.38 410.375 1106.76 410.021 1107 409.562C1107.24 409.099 1107.36 408.547 1107.36 407.906C1107.36 407.266 1107.24 406.706 1107 406.227C1106.76 405.747 1106.37 405.378 1105.85 405.117C1105.32 404.852 1104.63 404.719 1103.76 404.719H1100.36V419H1098.42ZM1105.95 411.812L1109.89 419H1107.64L1103.76 411.812H1105.95ZM1112.78 403L1117.53 416.469H1117.72L1122.47 403H1124.5L1118.63 419H1116.63L1110.75 403H1112.78ZM1126.99 419V403H1136.65V404.719H1128.93V410.125H1136.15V411.844H1128.93V417.281H1136.77V419H1126.99ZM1140.14 419V403H1145.55C1146.8 403 1147.82 403.214 1148.63 403.641C1149.43 404.062 1150.02 404.643 1150.41 405.383C1150.79 406.122 1150.99 406.964 1150.99 407.906C1150.99 408.849 1150.79 409.685 1150.41 410.414C1150.02 411.143 1149.43 411.716 1148.63 412.133C1147.84 412.544 1146.82 412.75 1145.58 412.75H1141.2V411H1145.52C1146.37 411 1147.06 410.875 1147.58 410.625C1148.11 410.375 1148.49 410.021 1148.72 409.562C1148.96 409.099 1149.08 408.547 1149.08 407.906C1149.08 407.266 1148.96 406.706 1148.72 406.227C1148.48 405.747 1148.1 405.378 1147.57 405.117C1147.05 404.852 1146.35 404.719 1145.49 404.719H1142.08V419H1140.14ZM1147.67 411.812L1151.61 419H1149.36L1145.49 411.812H1147.67Z" fill="black"/>
<rect x="654" y="185" width="198" height="128" fill="#D9D9D9"/>
<path d="M709.418 229.719V228H721.418V229.719H716.387V244H714.449V229.719H709.418ZM724.408 244V228H729.814C731.064 228 732.09 228.214 732.893 228.641C733.695 229.062 734.288 229.643 734.674 230.383C735.059 231.122 735.252 231.964 735.252 232.906C735.252 233.849 735.059 234.685 734.674 235.414C734.288 236.143 733.697 236.716 732.9 237.133C732.104 237.544 731.085 237.75 729.846 237.75H725.471V236H729.783C730.637 236 731.325 235.875 731.846 235.625C732.372 235.375 732.752 235.021 732.986 234.562C733.226 234.099 733.346 233.547 733.346 232.906C733.346 232.266 733.226 231.706 732.986 231.227C732.747 230.747 732.364 230.378 731.838 230.117C731.312 229.852 730.617 229.719 729.752 229.719H726.346V244H724.408ZM731.939 236.812L735.877 244H733.627L729.752 236.812H731.939ZM739.137 244H737.105L742.98 228H744.98L750.855 244H748.824L744.043 230.531H743.918L739.137 244ZM739.887 237.75H748.074V239.469H739.887V237.75ZM753.348 244V228H763.004V229.719H755.285V235.125H762.504V236.844H755.285V242.281H763.129V244H753.348ZM766.496 244V228H776.09V229.719H768.434V235.125H775.371V236.844H768.434V244H766.496ZM781.346 228V244H779.408V228H781.346ZM785.23 244V228H787.168V235.937H787.355L794.543 228H797.074L790.355 235.219L797.074 244H794.73L789.168 236.562L787.168 238.812V244H785.23ZM664.016 271V255H665.953V269.281H673.391V271H664.016ZM689.268 263C689.268 264.687 688.963 266.146 688.354 267.375C687.744 268.604 686.908 269.552 685.846 270.219C684.783 270.885 683.57 271.219 682.205 271.219C680.84 271.219 679.627 270.885 678.564 270.219C677.502 269.552 676.666 268.604 676.057 267.375C675.447 266.146 675.143 264.687 675.143 263C675.143 261.312 675.447 259.854 676.057 258.625C676.666 257.396 677.502 256.448 678.564 255.781C679.627 255.115 680.84 254.781 682.205 254.781C683.57 254.781 684.783 255.115 685.846 255.781C686.908 256.448 687.744 257.396 688.354 258.625C688.963 259.854 689.268 261.312 689.268 263ZM687.393 263C687.393 261.615 687.161 260.445 686.697 259.492C686.239 258.539 685.617 257.818 684.83 257.328C684.049 256.839 683.174 256.594 682.205 256.594C681.236 256.594 680.359 256.839 679.572 257.328C678.791 257.818 678.169 258.539 677.705 259.492C677.247 260.445 677.018 261.615 677.018 263C677.018 264.385 677.247 265.555 677.705 266.508C678.169 267.461 678.791 268.182 679.572 268.672C680.359 269.161 681.236 269.406 682.205 269.406C683.174 269.406 684.049 269.161 684.83 268.672C685.617 268.182 686.239 267.461 686.697 266.508C687.161 265.555 687.393 264.385 687.393 263ZM692.43 271H690.398L696.273 255H698.273L704.148 271H702.117L697.336 257.531H697.211L692.43 271ZM693.18 264.75H701.367V266.469H693.18V264.75ZM711.578 271H706.641V255H711.797C713.349 255 714.677 255.32 715.781 255.961C716.885 256.596 717.732 257.51 718.32 258.703C718.909 259.891 719.203 261.312 719.203 262.969C719.203 264.635 718.906 266.07 718.313 267.273C717.719 268.471 716.854 269.393 715.719 270.039C714.583 270.68 713.203 271 711.578 271ZM708.578 269.281H711.453C712.776 269.281 713.872 269.026 714.742 268.516C715.612 268.005 716.26 267.279 716.687 266.336C717.115 265.393 717.328 264.271 717.328 262.969C717.328 261.677 717.117 260.565 716.695 259.633C716.273 258.695 715.643 257.977 714.805 257.477C713.966 256.971 712.922 256.719 711.672 256.719H708.578V269.281ZM728.641 271V255H734.234C735.349 255 736.268 255.193 736.992 255.578C737.716 255.958 738.255 256.471 738.609 257.117C738.964 257.758 739.141 258.469 739.141 259.25C739.141 259.937 739.018 260.505 738.773 260.953C738.534 261.401 738.216 261.755 737.82 262.016C737.43 262.276 737.005 262.469 736.547 262.594V262.75C737.036 262.781 737.529 262.953 738.023 263.266C738.518 263.578 738.932 264.026 739.266 264.609C739.599 265.193 739.766 265.906 739.766 266.75C739.766 267.552 739.583 268.273 739.219 268.914C738.854 269.555 738.279 270.062 737.492 270.437C736.706 270.812 735.682 271 734.422 271H728.641ZM730.578 269.281H734.422C735.688 269.281 736.586 269.036 737.117 268.547C737.654 268.052 737.922 267.453 737.922 266.75C737.922 266.208 737.784 265.708 737.508 265.25C737.232 264.786 736.839 264.417 736.328 264.141C735.818 263.859 735.214 263.719 734.516 263.719H730.578V269.281ZM730.578 262.031H734.172C734.755 262.031 735.281 261.917 735.75 261.687C736.224 261.458 736.599 261.135 736.875 260.719C737.156 260.302 737.297 259.812 737.297 259.25C737.297 258.547 737.052 257.951 736.563 257.461C736.073 256.966 735.297 256.719 734.234 256.719H730.578V262.031ZM743.605 271H741.574L747.449 255H749.449L755.324 271H753.293L748.512 257.531H748.387L743.605 271ZM744.355 264.75H752.543V266.469H744.355V264.75ZM757.816 271V255H759.754V269.281H767.191V271H757.816ZM771.857 271H769.826L775.701 255H777.701L783.576 271H781.545L776.764 257.531H776.639L771.857 271ZM772.607 264.75H780.795V266.469H772.607V264.75ZM798.756 255V271H796.881L788.162 258.437H788.006V271H786.068V255H787.943L796.693 267.594H796.85V255H798.756ZM815.508 260H813.57C813.456 259.443 813.255 258.953 812.969 258.531C812.688 258.109 812.344 257.755 811.938 257.469C811.536 257.177 811.091 256.958 810.602 256.812C810.112 256.667 809.602 256.594 809.07 256.594C808.102 256.594 807.224 256.839 806.438 257.328C805.656 257.818 805.034 258.539 804.57 259.492C804.112 260.445 803.883 261.615 803.883 263C803.883 264.385 804.112 265.555 804.57 266.508C805.034 267.461 805.656 268.182 806.438 268.672C807.224 269.161 808.102 269.406 809.07 269.406C809.602 269.406 810.112 269.333 810.602 269.187C811.091 269.042 811.536 268.826 811.938 268.539C812.344 268.247 812.688 267.891 812.969 267.469C813.255 267.042 813.456 266.552 813.57 266H815.508C815.362 266.818 815.096 267.549 814.711 268.195C814.326 268.841 813.846 269.391 813.273 269.844C812.701 270.292 812.057 270.633 811.344 270.867C810.635 271.102 809.878 271.219 809.07 271.219C807.706 271.219 806.492 270.885 805.43 270.219C804.367 269.552 803.531 268.604 802.922 267.375C802.313 266.146 802.008 264.687 802.008 263C802.008 261.312 802.313 259.854 802.922 258.625C803.531 257.396 804.367 256.448 805.43 255.781C806.492 255.115 807.706 254.781 809.07 254.781C809.878 254.781 810.635 254.898 811.344 255.133C812.057 255.367 812.701 255.711 813.273 256.164C813.846 256.612 814.326 257.159 814.711 257.805C815.096 258.445 815.362 259.177 815.508 260ZM818.639 271V255H828.295V256.719H820.576V262.125H827.795V263.844H820.576V269.281H828.42V271H818.639ZM831.787 271V255H837.193C838.443 255 839.469 255.214 840.271 255.641C841.074 256.062 841.667 256.643 842.053 257.383C842.438 258.122 842.631 258.964 842.631 259.906C842.631 260.849 842.438 261.685 842.053 262.414C841.667 263.143 841.076 263.716 840.279 264.133C839.482 264.544 838.464 264.75 837.225 264.75H832.85V263H837.162C838.016 263 838.704 262.875 839.225 262.625C839.751 262.375 840.131 262.021 840.365 261.562C840.605 261.099 840.725 260.547 840.725 259.906C840.725 259.266 840.605 258.706 840.365 258.227C840.126 257.747 839.743 257.378 839.217 257.117C838.691 256.852 837.995 256.719 837.131 256.719H833.725V271H831.787ZM839.318 263.812L843.256 271H841.006L837.131 263.812H839.318Z" fill="black"/>
<path d="M656.121 222.121C657.293 220.95 657.293 219.05 656.121 217.879L637.029 198.787C635.858 197.615 633.958 197.615 632.787 198.787C631.615 199.958 631.615 201.858 632.787 203.029L649.757 220L632.787 236.971C631.615 238.142 631.615 240.042 632.787 241.213C633.958 242.385 635.858 242.385 637.029 241.213L656.121 222.121ZM520 223L654 223L654 217L520 217L520 223Z" fill="#E20000"/>
<path d="M852.149 291.004C850.494 290.922 849.086 292.196 849.004 293.851L847.665 320.818C847.583 322.473 848.858 323.881 850.512 323.963C852.167 324.045 853.575 322.77 853.658 321.116L854.848 297.145L878.818 298.335C880.473 298.417 881.881 297.142 881.963 295.488C882.045 293.833 880.77 292.425 879.116 292.342L852.149 291.004ZM988.224 439.986L854.224 291.986L849.776 296.014L983.776 444.014L988.224 439.986Z" fill="#0017E2"/>
<path d="M849.879 291.879C848.707 293.05 848.707 294.95 849.879 296.121L868.971 315.213C870.142 316.385 872.042 316.385 873.213 315.213C874.385 314.042 874.385 312.142 873.213 310.971L856.243 294L873.213 277.029C874.385 275.858 874.385 273.958 873.213 272.787C872.042 271.615 870.142 271.615 868.971 272.787L849.879 291.879ZM986 291L852 291L852 297L986 297L986 291Z" fill="#0017E2"/>
<path d="M849.021 294.353C849.216 295.998 850.707 297.174 852.353 296.979L879.165 293.804C880.811 293.609 881.987 292.117 881.792 290.472C881.597 288.827 880.105 287.651 878.46 287.846L854.626 290.668L851.804 266.835C851.609 265.189 850.117 264.013 848.472 264.208C846.827 264.403 845.651 265.895 845.846 267.54L849.021 294.353ZM983.644 122.143L849.644 292.143L854.356 295.857L988.356 125.857L983.644 122.143Z" fill="#0017E2"/>
<path d="M517.879 291.879C516.707 293.05 516.707 294.95 517.879 296.121L536.971 315.213C538.142 316.385 540.042 316.385 541.213 315.213C542.385 314.042 542.385 312.142 541.213 310.971L524.243 294L541.213 277.029C542.385 275.858 542.385 273.958 541.213 272.787C540.042 271.615 538.142 271.615 536.971 272.787L517.879 291.879ZM654 291H520V297H654V291Z" fill="#0017E2"/>
<rect x="23" y="185" width="166" height="128" fill="#D9D9D9"/>
<path d="M81.7969 246H79.8594C79.7448 245.443 79.5443 244.953 79.2578 244.531C78.9766 244.109 78.6328 243.755 78.2266 243.469C77.8255 243.177 77.3802 242.958 76.8906 242.812C76.401 242.667 75.8906 242.594 75.3594 242.594C74.3906 242.594 73.513 242.839 72.7266 243.328C71.9453 243.818 71.3229 244.539 70.8594 245.492C70.401 246.445 70.1719 247.615 70.1719 249C70.1719 250.385 70.401 251.555 70.8594 252.508C71.3229 253.461 71.9453 254.182 72.7266 254.672C73.513 255.161 74.3906 255.406 75.3594 255.406C75.8906 255.406 76.401 255.333 76.8906 255.187C77.3802 255.042 77.8255 254.826 78.2266 254.539C78.6328 254.247 78.9766 253.891 79.2578 253.469C79.5443 253.042 79.7448 252.552 79.8594 252H81.7969C81.651 252.818 81.3854 253.549 81 254.195C80.6146 254.841 80.1354 255.391 79.5625 255.844C78.9896 256.292 78.3464 256.633 77.6328 256.867C76.9245 257.102 76.1667 257.219 75.3594 257.219C73.9948 257.219 72.7813 256.885 71.7188 256.219C70.6563 255.552 69.8203 254.604 69.2109 253.375C68.6016 252.146 68.2969 250.687 68.2969 249C68.2969 247.312 68.6016 245.854 69.2109 244.625C69.8203 243.396 70.6563 242.448 71.7188 241.781C72.7813 241.115 73.9948 240.781 75.3594 240.781C76.1667 240.781 76.9245 240.898 77.6328 241.133C78.3464 241.367 78.9896 241.711 79.5625 242.164C80.1354 242.612 80.6146 243.159 81 243.805C81.3854 244.445 81.651 245.177 81.7969 246ZM84.9277 257V241H86.8652V255.281H94.3027V257H84.9277ZM99.2402 241V257H97.3027V241H99.2402ZM103.125 257V241H112.781V242.719H105.063V248.125H112.281V249.844H105.063V255.281H112.906V257H103.125ZM128.961 241V257H127.086L118.367 244.437H118.211V257H116.273V241H118.148L126.898 253.594H127.055V241H128.961ZM131.963 242.719V241H143.963V242.719H138.932V257H136.994V242.719H131.963Z" fill="black"/>
<path d="M325.121 222.121C326.293 220.95 326.293 219.05 325.121 217.879L306.029 198.787C304.858 197.615 302.958 197.615 301.787 198.787C300.615 199.958 300.615 201.858 301.787 203.029L318.757 220L301.787 236.971C300.615 238.142 300.615 240.042 301.787 241.213C302.958 242.385 304.858 242.385 306.029 241.213L325.121 222.121ZM189 223L323 223L323 217L189 217L189 223Z" fill="#E20000"/>
<path d="M186.879 291.879C185.707 293.05 185.707 294.95 186.879 296.121L205.971 315.213C207.142 316.385 209.042 316.385 210.213 315.213C211.385 314.042 211.385 312.142 210.213 310.971L193.243 294L210.213 277.029C211.385 275.858 211.385 273.958 210.213 272.787C209.042 271.615 207.142 271.615 205.971 272.787L186.879 291.879ZM323 291H189V297H323V291Z" fill="#0017E2"/>
<path d="M988.121 222.121C989.293 220.95 989.293 219.05 988.121 217.879L969.029 198.787C967.858 197.615 965.958 197.615 964.787 198.787C963.615 199.958 963.615 201.858 964.787 203.029L981.757 220L964.787 236.971C963.615 238.142 963.615 240.042 964.787 241.213C965.958 242.385 967.858 242.385 969.029 241.213L988.121 222.121ZM852 223L986 223L986 217L852 217L852 223Z" fill="#E20000"/>
<path d="M985.736 382.988C987.386 383.134 988.842 381.915 988.988 380.264L991.367 353.369C991.513 351.719 990.293 350.263 988.643 350.117C986.992 349.971 985.536 351.19 985.39 352.841L983.276 376.747L959.369 374.633C957.719 374.487 956.263 375.707 956.117 377.357C955.971 379.008 957.19 380.464 958.841 380.61L985.736 382.988ZM849.7 221.926L983.7 381.926L988.3 378.074L854.3 218.074L849.7 221.926Z" fill="#E20000"/>
<path d="M988.983 53.6818C988.807 52.0343 987.329 50.8412 985.682 51.0169L958.834 53.8807C957.187 54.0564 955.993 55.5344 956.169 57.1819C956.345 58.8295 957.823 60.0226 959.47 59.8468L983.335 57.3013L985.881 81.1659C986.056 82.8134 987.534 84.0065 989.182 83.8308C990.829 83.655 992.023 82.177 991.847 80.5295L988.983 53.6818ZM854.334 221.884L988.334 55.8844L983.666 52.1156L849.666 218.116L854.334 221.884Z" fill="#E20000"/>
<circle cx="1041.5" cy="168.5" r="8.5" fill="black"/>
<circle cx="1078.5" cy="168.5" r="8.5" fill="black"/>
<circle cx="1115.5" cy="168.5" r="8.5" fill="black"/>
<circle cx="1041.5" cy="330.5" r="8.5" fill="black"/>
<circle cx="1078.5" cy="330.5" r="8.5" fill="black"/>
<circle cx="1115.5" cy="330.5" r="8.5" fill="black"/>
<path d="M361.293 164V180H359.355V166.031H359.262L355.355 168.625V166.656L359.355 164H361.293ZM370.988 163.781C371.645 163.786 372.301 163.911 372.957 164.156C373.613 164.401 374.212 164.807 374.754 165.375C375.296 165.937 375.73 166.706 376.059 167.68C376.387 168.654 376.551 169.875 376.551 171.344C376.551 172.766 376.415 174.029 376.145 175.133C375.879 176.232 375.493 177.159 374.988 177.914C374.488 178.669 373.879 179.242 373.16 179.633C372.447 180.023 371.639 180.219 370.738 180.219C369.842 180.219 369.043 180.042 368.34 179.687C367.642 179.328 367.069 178.831 366.621 178.195C366.178 177.555 365.895 176.812 365.77 175.969H367.676C367.848 176.703 368.189 177.31 368.699 177.789C369.215 178.263 369.895 178.5 370.738 178.5C371.973 178.5 372.947 177.961 373.66 176.883C374.379 175.805 374.738 174.281 374.738 172.312H374.613C374.322 172.75 373.975 173.128 373.574 173.445C373.173 173.763 372.728 174.008 372.238 174.18C371.749 174.352 371.228 174.438 370.676 174.438C369.759 174.438 368.918 174.211 368.152 173.758C367.392 173.299 366.783 172.672 366.324 171.875C365.871 171.073 365.645 170.156 365.645 169.125C365.645 168.146 365.863 167.25 366.301 166.437C366.743 165.62 367.363 164.969 368.16 164.484C368.962 164 369.905 163.766 370.988 163.781ZM370.988 165.5C370.332 165.5 369.741 165.664 369.215 165.992C368.694 166.315 368.28 166.753 367.973 167.305C367.671 167.852 367.52 168.458 367.52 169.125C367.52 169.792 367.665 170.398 367.957 170.945C368.254 171.487 368.658 171.919 369.168 172.242C369.684 172.56 370.27 172.719 370.926 172.719C371.421 172.719 371.882 172.622 372.309 172.43C372.736 172.232 373.108 171.964 373.426 171.625C373.749 171.281 374.001 170.893 374.184 170.461C374.366 170.023 374.457 169.568 374.457 169.094C374.457 168.469 374.306 167.883 374.004 167.336C373.707 166.789 373.296 166.346 372.77 166.008C372.249 165.669 371.655 165.5 370.988 165.5ZM379.623 180V178.594L384.904 172.812C385.524 172.135 386.035 171.547 386.436 171.047C386.837 170.542 387.133 170.068 387.326 169.625C387.524 169.177 387.623 168.708 387.623 168.219C387.623 167.656 387.488 167.169 387.217 166.758C386.951 166.346 386.587 166.029 386.123 165.805C385.66 165.581 385.139 165.469 384.561 165.469C383.946 165.469 383.41 165.596 382.951 165.852C382.498 166.102 382.146 166.453 381.896 166.906C381.652 167.359 381.529 167.891 381.529 168.5H379.686C379.686 167.562 379.902 166.74 380.334 166.031C380.766 165.323 381.355 164.771 382.1 164.375C382.85 163.979 383.691 163.781 384.623 163.781C385.561 163.781 386.391 163.979 387.115 164.375C387.839 164.771 388.407 165.305 388.818 165.977C389.23 166.648 389.436 167.396 389.436 168.219C389.436 168.807 389.329 169.383 389.115 169.945C388.907 170.503 388.542 171.125 388.021 171.812C387.506 172.495 386.79 173.328 385.873 174.312L382.279 178.156V178.281H389.717V180H379.623ZM394.318 180.125C393.933 180.125 393.602 179.987 393.326 179.711C393.05 179.435 392.912 179.104 392.912 178.719C392.912 178.333 393.05 178.003 393.326 177.727C393.602 177.451 393.933 177.312 394.318 177.312C394.704 177.312 395.035 177.451 395.311 177.727C395.587 178.003 395.725 178.333 395.725 178.719C395.725 178.974 395.66 179.208 395.529 179.422C395.404 179.635 395.235 179.807 395.021 179.937C394.813 180.063 394.579 180.125 394.318 180.125ZM402.715 164V180H400.777V166.031H400.684L396.777 168.625V166.656L400.777 164H402.715ZM412.629 180.219C411.973 180.208 411.316 180.083 410.66 179.844C410.004 179.604 409.405 179.201 408.863 178.633C408.322 178.06 407.887 177.286 407.559 176.312C407.23 175.333 407.066 174.104 407.066 172.625C407.066 171.208 407.199 169.953 407.465 168.859C407.73 167.76 408.116 166.836 408.621 166.086C409.126 165.331 409.736 164.758 410.449 164.367C411.168 163.977 411.978 163.781 412.879 163.781C413.775 163.781 414.572 163.961 415.27 164.32C415.973 164.674 416.546 165.169 416.988 165.805C417.431 166.44 417.717 167.172 417.848 168H415.941C415.764 167.281 415.421 166.685 414.91 166.211C414.4 165.737 413.723 165.5 412.879 165.5C411.639 165.5 410.663 166.039 409.949 167.117C409.241 168.195 408.884 169.708 408.879 171.656H409.004C409.296 171.214 409.642 170.836 410.043 170.523C410.449 170.206 410.897 169.961 411.387 169.789C411.876 169.617 412.395 169.531 412.941 169.531C413.858 169.531 414.697 169.76 415.457 170.219C416.217 170.672 416.827 171.299 417.285 172.102C417.743 172.898 417.973 173.812 417.973 174.844C417.973 175.833 417.751 176.74 417.309 177.562C416.866 178.38 416.243 179.031 415.441 179.516C414.645 179.995 413.707 180.229 412.629 180.219ZM412.629 178.5C413.285 178.5 413.874 178.336 414.395 178.008C414.921 177.68 415.335 177.24 415.637 176.687C415.944 176.135 416.098 175.521 416.098 174.844C416.098 174.182 415.949 173.581 415.652 173.039C415.361 172.492 414.957 172.057 414.441 171.734C413.931 171.411 413.348 171.25 412.691 171.25C412.197 171.25 411.736 171.349 411.309 171.547C410.882 171.74 410.507 172.005 410.184 172.344C409.866 172.682 409.616 173.07 409.434 173.508C409.251 173.94 409.16 174.396 409.16 174.875C409.16 175.51 409.309 176.104 409.605 176.656C409.908 177.208 410.319 177.654 410.84 177.992C411.366 178.331 411.962 178.5 412.629 178.5ZM426.17 180.219C425.097 180.219 424.149 180.029 423.326 179.648C422.508 179.263 421.87 178.734 421.412 178.062C420.954 177.385 420.727 176.615 420.732 175.75C420.727 175.073 420.86 174.448 421.131 173.875C421.402 173.297 421.771 172.815 422.24 172.43C422.714 172.039 423.243 171.792 423.826 171.688V171.594C423.061 171.396 422.451 170.966 421.998 170.305C421.545 169.638 421.321 168.88 421.326 168.031C421.321 167.219 421.527 166.492 421.943 165.852C422.36 165.211 422.933 164.706 423.662 164.336C424.396 163.966 425.232 163.781 426.17 163.781C427.097 163.781 427.925 163.966 428.654 164.336C429.383 164.706 429.956 165.211 430.373 165.852C430.795 166.492 431.008 167.219 431.014 168.031C431.008 168.88 430.777 169.638 430.318 170.305C429.865 170.966 429.264 171.396 428.514 171.594V171.688C429.092 171.792 429.613 172.039 430.076 172.43C430.54 172.815 430.91 173.297 431.186 173.875C431.462 174.448 431.602 175.073 431.607 175.75C431.602 176.615 431.368 177.385 430.904 178.062C430.446 178.734 429.808 179.263 428.99 179.648C428.178 180.029 427.238 180.219 426.17 180.219ZM426.17 178.5C426.894 178.5 427.519 178.383 428.045 178.148C428.571 177.914 428.977 177.583 429.264 177.156C429.55 176.729 429.696 176.229 429.701 175.656C429.696 175.052 429.54 174.518 429.232 174.055C428.925 173.591 428.506 173.227 427.975 172.961C427.449 172.695 426.847 172.562 426.17 172.562C425.488 172.562 424.878 172.695 424.342 172.961C423.811 173.227 423.391 173.591 423.084 174.055C422.782 174.518 422.633 175.052 422.639 175.656C422.633 176.229 422.771 176.729 423.053 177.156C423.339 177.583 423.748 177.914 424.279 178.148C424.811 178.383 425.441 178.5 426.17 178.5ZM426.17 170.906C426.743 170.906 427.251 170.792 427.693 170.562C428.141 170.333 428.493 170.013 428.748 169.602C429.003 169.19 429.133 168.708 429.139 168.156C429.133 167.615 429.006 167.143 428.756 166.742C428.506 166.336 428.16 166.023 427.717 165.805C427.274 165.581 426.758 165.469 426.17 165.469C425.571 165.469 425.048 165.581 424.6 165.805C424.152 166.023 423.805 166.336 423.561 166.742C423.316 167.143 423.196 167.615 423.201 168.156C423.196 168.708 423.318 169.19 423.568 169.602C423.824 170.013 424.175 170.333 424.623 170.562C425.071 170.792 425.587 170.906 426.17 170.906ZM435.482 180.125C435.097 180.125 434.766 179.987 434.49 179.711C434.214 179.435 434.076 179.104 434.076 178.719C434.076 178.333 434.214 178.003 434.49 177.727C434.766 177.451 435.097 177.312 435.482 177.312C435.868 177.312 436.199 177.451 436.475 177.727C436.751 178.003 436.889 178.333 436.889 178.719C436.889 178.974 436.824 179.208 436.693 179.422C436.568 179.635 436.399 179.807 436.186 179.937C435.977 180.063 435.743 180.125 435.482 180.125ZM443.879 164V180H441.941V166.031H441.848L437.941 168.625V166.656L441.941 164H443.879ZM448.91 180.125C448.525 180.125 448.194 179.987 447.918 179.711C447.642 179.435 447.504 179.104 447.504 178.719C447.504 178.333 447.642 178.003 447.918 177.727C448.194 177.451 448.525 177.312 448.91 177.312C449.296 177.312 449.626 177.451 449.902 177.727C450.178 178.003 450.316 178.333 450.316 178.719C450.316 178.974 450.251 179.208 450.121 179.422C449.996 179.635 449.827 179.807 449.613 179.937C449.405 180.063 449.171 180.125 448.91 180.125ZM457.307 164V180H455.369V166.031H455.275L451.369 168.625V166.656L455.369 164H457.307ZM467.002 163.781C467.658 163.786 468.314 163.911 468.971 164.156C469.627 164.401 470.226 164.807 470.768 165.375C471.309 165.937 471.744 166.706 472.072 167.68C472.4 168.654 472.564 169.875 472.564 171.344C472.564 172.766 472.429 174.029 472.158 175.133C471.893 176.232 471.507 177.159 471.002 177.914C470.502 178.669 469.893 179.242 469.174 179.633C468.46 180.023 467.653 180.219 466.752 180.219C465.856 180.219 465.057 180.042 464.354 179.687C463.656 179.328 463.083 178.831 462.635 178.195C462.192 177.555 461.908 176.812 461.783 175.969H463.689C463.861 176.703 464.202 177.31 464.713 177.789C465.229 178.263 465.908 178.5 466.752 178.5C467.986 178.5 468.96 177.961 469.674 176.883C470.393 175.805 470.752 174.281 470.752 172.312H470.627C470.335 172.75 469.989 173.128 469.588 173.445C469.187 173.763 468.742 174.008 468.252 174.18C467.762 174.352 467.242 174.438 466.689 174.438C465.773 174.438 464.932 174.211 464.166 173.758C463.406 173.299 462.796 172.672 462.338 171.875C461.885 171.073 461.658 170.156 461.658 169.125C461.658 168.146 461.877 167.25 462.314 166.437C462.757 165.62 463.377 164.969 464.174 164.484C464.976 164 465.919 163.766 467.002 163.781ZM467.002 165.5C466.346 165.5 465.755 165.664 465.229 165.992C464.708 166.315 464.294 166.753 463.986 167.305C463.684 167.852 463.533 168.458 463.533 169.125C463.533 169.792 463.679 170.398 463.971 170.945C464.268 171.487 464.671 171.919 465.182 172.242C465.697 172.56 466.283 172.719 466.939 172.719C467.434 172.719 467.895 172.622 468.322 172.43C468.749 172.232 469.122 171.964 469.439 171.625C469.762 171.281 470.015 170.893 470.197 170.461C470.38 170.023 470.471 169.568 470.471 169.094C470.471 168.469 470.32 167.883 470.018 167.336C469.721 166.789 469.309 166.346 468.783 166.008C468.262 165.669 467.669 165.5 467.002 165.5ZM481.043 180.219C480.012 180.219 479.092 180.042 478.285 179.687C477.483 179.333 476.845 178.841 476.371 178.211C475.902 177.576 475.647 176.839 475.605 176H477.574C477.616 176.516 477.793 176.961 478.105 177.336C478.418 177.706 478.827 177.992 479.332 178.195C479.837 178.398 480.397 178.5 481.012 178.5C481.699 178.5 482.309 178.38 482.84 178.141C483.371 177.901 483.788 177.568 484.09 177.141C484.392 176.714 484.543 176.219 484.543 175.656C484.543 175.068 484.397 174.549 484.105 174.102C483.814 173.648 483.387 173.294 482.824 173.039C482.262 172.784 481.574 172.656 480.762 172.656H479.48V170.937H480.762C481.397 170.937 481.954 170.823 482.434 170.594C482.918 170.365 483.296 170.042 483.566 169.625C483.842 169.208 483.98 168.719 483.98 168.156C483.98 167.615 483.861 167.143 483.621 166.742C483.382 166.341 483.043 166.029 482.605 165.805C482.173 165.581 481.663 165.469 481.074 165.469C480.522 165.469 480.001 165.57 479.512 165.773C479.027 165.971 478.632 166.26 478.324 166.641C478.017 167.016 477.85 167.469 477.824 168H475.949C475.98 167.161 476.233 166.427 476.707 165.797C477.181 165.161 477.801 164.667 478.566 164.312C479.337 163.958 480.184 163.781 481.105 163.781C482.095 163.781 482.944 163.982 483.652 164.383C484.361 164.779 484.905 165.302 485.285 165.953C485.665 166.604 485.855 167.307 485.855 168.063C485.855 168.964 485.618 169.732 485.145 170.367C484.676 171.003 484.038 171.443 483.23 171.688V171.812C484.241 171.979 485.03 172.409 485.598 173.102C486.165 173.789 486.449 174.641 486.449 175.656C486.449 176.526 486.212 177.307 485.738 178C485.27 178.687 484.629 179.229 483.816 179.625C483.004 180.021 482.079 180.219 481.043 180.219Z" fill="black"/>
<path d="M583.597 203.781V211H581.753V199H583.534V200.875H583.69C583.972 200.266 584.399 199.776 584.972 199.406C585.545 199.031 586.284 198.844 587.19 198.844C588.003 198.844 588.714 199.01 589.323 199.344C589.933 199.672 590.407 200.172 590.745 200.844C591.084 201.51 591.253 202.354 591.253 203.375V211H589.409V203.5C589.409 202.557 589.164 201.823 588.675 201.297C588.185 200.766 587.513 200.5 586.659 200.5C586.071 200.5 585.545 200.628 585.081 200.883C584.623 201.138 584.261 201.51 583.995 202C583.729 202.49 583.597 203.083 583.597 203.781Z" fill="#E20000"/>
<line x1="601.894" y1="211.789" x2="569.894" y2="227.789" stroke="#E20000" stroke-width="4"/>
<path d="M583.597 278.781V286H581.753V274H583.534V275.875H583.69C583.972 275.266 584.399 274.776 584.972 274.406C585.545 274.031 586.284 273.844 587.19 273.844C588.003 273.844 588.714 274.01 589.323 274.344C589.933 274.672 590.407 275.172 590.745 275.844C591.084 276.51 591.253 277.354 591.253 278.375V286H589.409V278.5C589.409 277.557 589.164 276.823 588.675 276.297C588.185 275.766 587.513 275.5 586.659 275.5C586.071 275.5 585.545 275.628 585.081 275.883C584.623 276.138 584.261 276.51 583.995 277C583.729 277.49 583.597 278.083 583.597 278.781Z" fill="#0017E2"/>
<line x1="601.894" y1="286.789" x2="569.894" y2="302.789" stroke="#0017E2" stroke-width="4"/>
</svg>
